<svg width="166" height="70" viewBox="0 0 166 70" fill="none" xmlns="http://www.w3.org/2000/svg">
<g clip-path="url(#clip0_5_154)">
<path d="M23.9684 1.18754C26.9209 1.14802 27.8301 2.16419 28.6902 4.85218C29.8949 8.61607 30.2721 12.7786 30.8038 16.691C31.0964 18.8448 33.1504 30.101 30.7549 30.6375C30.0012 30.2279 29.6882 29.268 29.3329 28.4828C29.2736 29.8244 29.064 30.6248 28.6121 31.8634C23.7697 30.7061 23.8322 18.5209 23.4859 14.3991C22.0924 16.513 19.79 22.9946 18.0453 24.0296C11.6794 27.8056 10.8491 17.469 8.49844 14.2372C7.87745 17.5203 7.5953 21.4665 7.14373 24.8332C6.9509 26.2702 6.84335 27.8229 6.39294 29.2077C6.08534 30.1523 5.4976 31.0044 4.58174 31.4443C3.7156 31.8602 2.65374 31.819 1.77257 31.4691C1.11198 31.2069 0.514708 30.7347 0.262904 30.0508C-0.912858 26.856 2.14291 8.26129 3.7474 4.53115C4.18279 3.5193 4.85465 2.78492 5.90639 2.39292C7.19866 1.91151 8.6823 2.03152 9.91184 2.63667C12.5496 3.93495 14.9002 11.4483 15.8878 14.1934C17.0407 11.6813 18.1855 9.16354 19.3541 6.659C20.3731 4.47462 21.4529 1.92307 23.9684 1.18754Z" fill="black"/>
<path fill-rule="evenodd" clip-rule="evenodd" d="M102.428 39.8629C111.315 39.0755 115.259 47.1752 114.381 54.9599C113.622 61.6918 109.95 66.681 102.866 67.1962C90.6948 67.2023 88.4308 53.2007 94.0824 44.7222C94.8008 43.6451 96.7912 41.7639 98.0737 41.5626C98.2505 41.8113 98.2843 41.8625 98.5022 42.0736C99.8028 41.5908 98.976 40.3184 102.428 39.8629ZM103.53 60.1842C109.56 58.0667 108.554 45.6266 102.291 46.4683C96.7366 49.1643 96.6682 60.9995 103.53 60.1842Z" fill="black"/>
<path fill-rule="evenodd" clip-rule="evenodd" d="M45.577 3.0933C57.992 2.45528 60.1327 19.308 53.4057 26.77C51.1453 29.2773 48.3924 30.1708 45.0907 30.2934C29.5954 29.8927 32.0825 7.70303 40.2644 4.89845C40.4345 5.05317 40.6035 5.20923 40.7704 5.3677C42.9445 4.61486 41.5325 3.51068 45.577 3.0933ZM49.2546 20.4415C50.8891 16.7996 50.613 9.31098 45.0802 9.69288C43.4586 10.3392 42.1728 11.6216 41.5891 13.2603C40.1251 17.3723 40.2477 23.4688 46.0008 23.4111C47.6017 22.8224 48.5339 22.0472 49.2546 20.4415Z" fill="black"/>
<path fill-rule="evenodd" clip-rule="evenodd" d="M128.208 37.9992C133.783 38.2697 138.076 41.2699 137.591 47.42C137.374 50.1741 135.92 52.5851 133.685 54.198C132.788 54.845 131.789 55.422 130.957 56.1446C132.985 57.7607 138.174 61.2454 138.237 63.9236C138.257 64.829 137.913 65.7055 137.283 66.3567C134.333 69.389 129.5 63.8671 127.489 61.8334C126.463 60.7527 125.606 59.8693 124.496 58.8581C124.224 62.6952 125.105 67.1123 122.46 70.1061C122.023 69.1231 121.814 68.6962 121.242 67.7911C121.057 68.7026 121.035 69.3657 120.311 69.974C119.937 70.0486 119.764 70.0724 119.442 69.8373C118.291 68.9968 117.882 67.1902 117.671 65.8562C117.067 62.0363 117.03 42.7215 119.026 40.2504C120.594 38.3104 124.63 38.1801 126.949 38.0027C127.369 37.9816 127.789 37.9805 128.208 37.9992ZM126.952 43.9047C125.908 44.072 125.801 44.1364 124.852 44.5571C124.755 46.8563 124.697 49.1577 124.679 51.459C125.922 51.258 126.479 51.1683 127.638 50.5808C131.411 48.2631 131.89 44.0348 126.952 43.9047Z" fill="black"/>
<path fill-rule="evenodd" clip-rule="evenodd" d="M153.635 1.36639C155.612 1.1495 157.799 1.3328 159.663 1.93991C165.795 3.93622 167.046 11.4859 163.006 16.0266C161.671 17.5272 160.413 18.398 158.592 19.2093C160.763 21.6401 168.773 25.7292 165.007 29.6903C164.438 30.2935 163.637 30.6253 162.807 30.601C160.436 30.5518 157.62 27.5351 155.985 25.9259C154.732 24.6171 153.46 23.3263 152.171 22.0538C152.178 25.1211 152.713 31.1049 150.108 33.1141C149.769 32.3908 149.357 31.657 148.978 30.9498C148.782 31.9905 148.819 32.8405 147.744 33.2184C147.466 33.1806 147.277 33.1251 147.058 32.9496C146.024 32.119 145.454 30.3218 145.292 29.0334C144.845 25.4538 145.02 5.64616 146.816 3.53187C148.327 1.75425 151.482 1.60147 153.635 1.36639ZM153.898 7.37854C153.391 7.61909 152.947 7.82839 152.459 8.10384C152.393 10.335 152.288 12.6901 152.299 14.912C153.768 14.6233 154.313 14.5223 155.658 13.7603C159.672 10.9451 158.776 7.11664 153.898 7.37854Z" fill="black"/>
<path d="M79.4714 4.58971C79.8573 3.67073 80.0938 2.15843 81.1646 1.96431C84.7514 3.51901 82.7072 21.3381 82.3953 24.9139C81.9787 29.6902 77.7324 32.3549 74.2583 28.0998C71.2601 24.4276 69.4449 19.2605 66.8178 15.2554L66.6817 15.0501C66.6285 18.0228 66.8823 27.7035 66.0014 29.919C65.8355 30.1171 65.6661 30.3182 65.4761 30.4941C64.7884 31.1299 63.9002 31.3869 62.9757 31.3427C62.0966 31.3006 61.2831 30.949 60.6962 30.2836C58.841 28.18 59.5042 16.361 59.7956 13.2701C60.0101 10.992 60.1417 5.588 62.007 4.1406C62.8705 3.47055 64.0648 3.3171 65.1211 3.4818C66.0818 3.63179 67.0416 4.06185 67.7808 4.6944C71.1089 7.54306 73.4185 14.3388 76.0048 17.959L76.1193 18.1171C76.2288 14.7775 76.0074 11.2328 76.1936 7.89438C76.3208 5.61165 76.5633 3.38603 78.3361 1.79787C79.4086 1.98709 79.3586 3.67419 79.4714 4.58971Z" fill="black"/>
<path fill-rule="evenodd" clip-rule="evenodd" d="M35.02 38.4203C35.9101 38.5166 36.2598 38.6327 37.1123 38.9973C39.972 40.2203 41.8293 45.1572 42.7989 48.4633C43.9654 52.4409 46.869 61.9482 45.5443 65.961C45.1671 66.7224 44.25 67.2478 43.5041 67.4197C39.0942 68.435 38.8225 62.9884 38.1521 59.753C36.5323 59.6815 34.0873 59.8033 32.4088 59.8353L30.2261 59.8874C29.5604 62.0998 28.6913 68.4328 25.8029 68.6687C22.0339 68.9763 21.9238 65.8549 22.5422 63.0435C24.2207 55.4099 26.3581 47.4252 30.7032 40.8325C31.7523 39.2445 33.246 38.6839 35.02 38.4203ZM34.7166 45.9908C33.6421 47.7283 32.4409 52.0055 31.9329 54.1047L34.4908 54.0305L36.9143 53.9969C36.6608 52.236 35.8912 47.1572 34.7166 45.9908Z" fill="black"/>
<path d="M134.551 2.52013C136.315 2.36725 140.068 2.28014 141.472 3.36987C142.056 3.82186 142.423 4.49769 142.483 5.23236C142.556 6.14499 142.236 7.04521 141.603 7.70776C140.19 9.19497 135.749 8.90739 133.565 8.94778C133.327 9.17824 132.948 9.63456 132.715 9.89849C132.404 11.3237 132.353 12.7838 132.341 14.2364C133.915 14.1622 138.557 13.7226 139.816 14.8297C141.944 16.7022 140.626 19.3943 137.861 19.8858C135.982 20.2198 133.925 20.3118 131.88 20.497C131.741 22.463 131.723 23.5372 131.979 25.4827C135.323 25.6595 138.033 24.8046 141.162 24.7876C141.928 25.0599 142.916 25.4582 143.1 26.2875C142.941 26.7222 142.467 26.9872 142.075 27.2766L142.099 27.4635C142.543 27.6925 142.922 27.8099 143.151 28.2319C143.143 28.4672 143.134 28.6363 142.997 28.8405C141.81 30.6069 138.57 31.2827 136.61 31.6153C134.074 32.0454 129.327 32.4927 127.192 30.8815C125.955 29.9481 125.417 28.141 125.176 26.6682C124.448 22.2254 125.088 8.21658 127.826 4.69239C129.208 2.91328 132.492 2.74655 134.551 2.52013Z" fill="black"/>
<path d="M17.363 37.8612C19.1036 37.8315 22.0712 37.7926 23.5673 38.8604C24.5517 39.6233 25.0547 41.5146 24.3412 42.5793C23.0669 44.4804 20.369 44.455 18.3152 44.5851C16.0898 44.7262 13.8675 44.8554 11.6423 45.0244C11.5209 47.0063 11.387 48.9873 11.2407 50.9678C13.7437 50.9259 16.2762 50.5181 18.7642 50.7584C19.6755 50.8463 21.8775 51.5507 21.698 52.7166C21.0258 53.5375 20.445 53.466 19.3574 53.6373C20.0761 53.9999 20.9255 54.3662 21.517 54.8854C21.3415 57.2036 13.3159 57.3755 11.5506 57.4015C10.6484 58.7944 12.9175 65.9872 10.9343 68.6637C10.5191 69.2241 9.95945 69.5434 9.26532 69.6176C8.26158 69.7243 6.9138 69.4171 6.12399 68.7713C4.36801 67.3351 4.49203 63.4885 4.32031 61.3999C3.97512 57.2022 3.48973 42.7858 6.12457 39.9005C7.91726 37.9371 14.6911 37.959 17.363 37.8612Z" fill="black"/>
<path d="M95.1835 1.65451C97.4908 1.55644 100.602 1.57375 102.063 3.81985C102.344 4.25136 102.477 5.52166 102.376 6.01172C101.594 9.83503 96.4235 7.2128 94.3235 8.83817C93.9572 9.11969 93.7239 9.54024 93.6797 9.99944C93.2206 14.3595 104.806 14.6491 103.72 24.4178C103.467 26.6907 102.301 28.7638 100.487 30.1627C97.7684 32.2992 94.4348 32.4108 91.1399 31.9923C88.5699 31.6165 85.3256 30.5086 85.0287 27.4825C84.9495 26.6769 85.1412 25.6861 85.7497 25.0971C88.3212 22.6081 91.1087 25.7392 93.9774 25.4363C94.6742 25.4075 95.2963 25.0983 95.7204 24.5505C97.5131 22.2355 94.2154 20.0837 92.5444 18.9795C91.7696 18.4776 91.0229 17.91 90.2619 17.3931C82.2403 11.9427 86.0339 2.55099 95.1835 1.65451Z" fill="black"/>
<path d="M59.6231 39.4278C62.3828 39.1292 65.3426 39.5229 67.4007 41.6716C68.7458 43.0757 68.882 45.2251 67.2824 46.5358C65.9 47.4669 63.9023 46.7349 62.3863 46.4464C56.0851 45.2482 53.6029 55.1862 56.643 59.2299C58.9524 62.3021 62.3018 60.401 64.9378 58.9521C68.1569 57.1831 70.2176 59.3929 69.4596 62.7907C66.7109 68.0963 57.325 69.4085 52.942 65.8955C43.8106 58.5774 47.7122 41.465 59.6231 39.4278Z" fill="black"/>
<path d="M159.827 37.4909C160.336 38.1852 160.038 39.4145 159.933 40.3341C160.796 39.6392 161.698 38.1445 162.821 38.6178C165.677 42.2141 156.381 53.3875 154.208 56.5517C153.954 59.5057 154.496 67.111 152.665 69.1904C152.097 69.8357 151.344 70.176 150.49 70.2297C149.516 70.2908 148.498 70.0806 147.77 69.3949C147.26 68.915 146.974 68.2818 146.832 67.6046C146.39 65.4955 146.846 59.6072 146.83 57.0862C146.778 56.2685 144.954 54.1894 144.373 53.198C142.439 49.8426 139.131 45.2985 139.354 41.2952C139.485 38.9527 143.617 38.0188 145.188 40.2597C147.316 43.2944 148.495 47.0854 150.513 50.1385L150.631 50.3148C152.018 48.2259 153.27 46.0418 154.552 43.8874C156.112 41.2637 157.027 39.0191 159.827 37.4909Z" fill="black"/>
<path d="M86.8514 39.0147C88.3064 38.968 89.5851 38.9008 90.8213 39.8039C92.0109 40.6464 92.4845 42.3436 91.4761 43.5121C89.849 45.3977 86.6898 45.436 84.366 45.6864C84.3484 49.133 84.7843 63.4689 83.8456 65.7265C83.4782 66.6103 82.6898 67.3005 81.7873 67.6069C80.902 67.9074 79.9405 67.7819 79.1143 67.3585C78.1834 66.8814 77.8052 66.1044 77.5101 65.1464C76.5361 61.1149 77.4161 50.8215 77.6028 46.1773C75.8067 46.3619 72.7356 46.9348 71.2384 45.7499C70.598 45.2431 70.2323 44.2606 70.1947 43.4663C70.1592 42.7157 70.4639 42.0252 70.9845 41.4907C73.3216 39.0926 83.3131 39.15 86.8514 39.0147Z" fill="black"/>
<path d="M116.785 2.3788C118.897 2.26861 122.374 1.81114 124.17 3.05202C125.318 3.84495 125.289 6.09076 124.372 7.0556C122.88 8.6253 119.66 8.72078 117.617 8.92961C117.316 15.0097 117.641 21.1065 117.407 27.1871C117.281 30.4509 114.855 31.9107 111.918 30.431C111.752 30.2873 111.594 30.1336 111.447 29.9706C109.806 28.1586 110.326 22.8732 110.397 20.454L110.735 9.37728C109.206 9.40208 105.293 9.99395 104.379 8.80326C99.3147 2.20745 114.205 2.52014 116.785 2.3788Z" fill="black"/>
</g>
<defs>
<clipPath id="clip0_5_154">
<rect width="166" height="70" fill="white"/>
</clipPath>
</defs>
</svg>
