<svg width="61" height="71" viewBox="0 0 61 71" fill="none" xmlns="http://www.w3.org/2000/svg">
<path d="M29.1507 18.945C33.7909 18.7329 32.5162 26.496 30.805 28.9088C30.0018 30.0411 29.784 30.318 28.5374 30.8649C23.7153 30.9846 24.6579 20.715 29.1507 18.945Z" fill="#EFFF1A"/>
<path d="M11.678 16.8454C16.3696 16.4936 15.2556 25.8729 11.4876 28.0329C7.10816 28.6338 7.70101 19.0656 11.678 16.8454Z" fill="#EFFF1A"/>
<path fill-rule="evenodd" clip-rule="evenodd" d="M24.679 0.0309126C27.3835 -0.0871613 30.0927 0.133381 32.7435 0.686186C36.9401 1.58831 41.0434 3.56612 44.053 6.6315C54.1911 16.9587 47.3248 28.9178 51.3431 40.8581C52.756 45.3186 56.8403 47.6412 59.3567 51.2741C60.7385 53.2687 61.1095 56.2858 59.1106 58.0114C55.8066 60.8622 51.5927 57.0436 48.2474 58.6598C46.544 59.7008 48.2482 62.6571 48.3772 63.9899C49.1018 71.4942 42.3586 71.4467 37.2991 70.2663C34.2011 69.3705 32.9245 68.5998 30.136 67.1579C27.2617 65.6716 24.6201 62.6453 21.5813 62.3151C19.9759 62.1408 18.3284 63.5316 16.6653 63.6393C14.7217 63.7648 12.7824 62.4993 11.3763 61.2594C4.24368 54.8543 0.954146 44.3763 0.153612 35.0592C-0.978116 21.8865 4.08655 6.57962 17.2435 1.51333C19.753 0.547212 22.0232 0.213087 24.679 0.0309126ZM40.8157 8.0856C36.8 4.80465 30.0981 3.05888 24.9183 3.60806C-0.893869 5.50433 -1.65619 44.1772 13.5784 58.5583C16.6751 61.4811 17.659 59.538 20.8558 59.0251C18.1624 55.5185 16.5236 52.3623 15.3519 48.0426C19.9672 54.8451 24.8913 60.0341 32.1722 64.1569C34.2388 65.3271 36.9936 66.5619 39.3353 67.0465C41.3292 67.4292 45.3407 67.9072 45.5394 65.1852C45.8498 60.9192 41.6208 55.8435 40.0481 51.9704C38.9833 49.3474 38.4525 47.7381 38.0306 45.1217C40.49 49.978 42.2297 52.4931 45.7308 56.7038C47.4659 55.0928 48.5027 54.9959 50.7806 54.9088C51.7897 54.7003 58.1562 56.7816 57.6604 54.3004C57.1687 51.845 53.6367 49.3662 51.9974 47.4713C48.1073 42.9753 46.8697 36.7895 46.9769 30.9674C47.1259 22.8563 48.0852 13.7705 40.8157 8.0856Z" fill="#EFFF1A"/>
</svg>
