<svg width="100" height="117" viewBox="0 0 100 117" fill="none" xmlns="http://www.w3.org/2000/svg">
<path d="M40.7905 0.0511302C45.2608 -0.143887 49.7385 0.219471 54.1201 1.13247C61.0565 2.62221 67.8382 5.88852 72.8126 10.9507C89.5691 28.0046 78.2198 47.7529 84.8613 67.4707C87.1965 74.8372 93.9477 78.6723 98.107 84.672C100.391 87.9658 101.005 92.9466 97.7008 95.7963C92.2392 100.506 85.2741 94.1981 79.7442 96.8684C76.9276 98.5873 79.7468 103.47 79.9595 105.67C81.1574 118.063 70.0124 117.984 61.6498 116.034C56.5288 114.555 54.4193 113.283 49.8103 110.901C45.0594 108.447 40.6935 103.449 35.6708 102.903C33.0172 102.615 30.2949 104.913 27.5461 105.091C24.3332 105.298 21.1285 103.209 18.8042 101.161C7.01465 90.5841 1.57702 73.2814 0.25393 57.8951C-1.61675 36.142 6.75413 10.8645 28.5008 2.49846C32.6488 0.902903 36.4006 0.351964 40.7905 0.0511302Z" fill="black"/>
<path d="M41.1864 5.95707C49.7478 5.05018 60.8246 7.93358 67.4619 13.3516C79.4772 22.7395 77.8917 37.7436 77.6454 51.1381C77.4682 60.7526 79.5137 70.9667 85.9434 78.3914C88.6529 81.5204 94.4905 85.6133 95.3033 89.6682C96.1247 93.7671 85.6004 90.3286 83.9322 90.6731C80.1667 90.8168 78.4537 90.9774 75.5854 93.6381C69.7987 86.6847 66.9238 82.5314 62.8588 74.5118C63.5562 78.8326 64.4325 81.4898 66.1925 85.8214C68.7918 92.2175 75.7822 100.599 75.2685 107.644C74.9407 112.14 68.3112 111.349 65.0154 110.717C61.145 109.917 56.5919 107.878 53.176 105.946C41.1415 99.1373 33.0032 90.5682 25.3746 79.3346C27.3114 86.4684 30.0195 91.6806 34.4715 97.4715C29.1872 98.3184 27.5617 101.527 22.4427 96.6998C-2.73752 72.9514 -1.47726 9.08781 41.1864 5.95707Z" fill="white"/>
<path d="M48.1804 31.2843C55.8508 30.9332 53.7436 43.7547 50.915 47.7389C49.5875 49.6087 49.2287 50.0655 47.1682 50.9686C39.1972 51.1673 40.7544 34.2074 48.1804 31.2843Z" fill="black"/>
<path d="M19.3016 27.8179C27.0563 27.2365 25.2149 42.725 18.9869 46.2919C11.7485 47.2842 12.7283 31.4843 19.3016 27.8179Z" fill="black"/>
</svg>
