<svg width="140" height="141" viewBox="0 0 140 141" fill="none" xmlns="http://www.w3.org/2000/svg">
<g clip-path="url(#clip0_8_226)">
<path d="M20.1638 82.4934C22.6476 82.4601 23.4125 83.3145 24.1361 85.5744C25.1495 88.7389 25.4669 92.2385 25.9142 95.5279C26.1603 97.3387 27.8883 106.802 25.8731 107.253C25.239 106.909 24.9756 106.102 24.6767 105.442C24.6269 106.57 24.4505 107.243 24.0704 108.284C19.9967 107.311 20.0492 97.0664 19.7578 93.601C18.5856 95.3783 16.6487 100.828 15.1809 101.698C9.82546 104.872 9.12697 96.182 7.14944 93.4649C6.62703 96.2251 6.38966 99.5429 6.00977 102.373C5.84755 103.582 5.75708 104.887 5.37816 106.051C5.11939 106.846 4.62494 107.562 3.85446 107.932C3.12581 108.281 2.2325 108.247 1.4912 107.953C0.935474 107.732 0.433006 107.335 0.221172 106.76C-0.767956 104.074 1.80276 88.4406 3.15256 85.3045C3.51883 84.4538 4.08405 83.8364 4.96884 83.5068C6.05598 83.102 7.30412 83.2029 8.33849 83.7117C10.5575 84.8032 12.535 91.1201 13.3658 93.428C14.3358 91.316 15.2989 89.1992 16.2819 87.0935C17.1392 85.257 18.0476 83.1118 20.1638 82.4934Z" fill="white"/>
<path fill-rule="evenodd" clip-rule="evenodd" d="M86.1691 115.009C93.6456 114.347 96.9634 121.158 96.2248 127.703C95.5864 133.362 92.4973 137.556 86.5383 137.99C76.2987 137.995 74.3932 126.223 79.1476 119.095C79.7518 118.19 81.427 116.607 82.506 116.438C82.6549 116.647 82.684 116.69 82.8674 116.868C83.9609 116.462 83.2655 115.392 86.1691 115.009ZM87.0969 132.095C92.1692 130.315 91.3227 119.855 86.0539 120.563C81.381 122.83 81.3239 132.781 87.0969 132.095Z" fill="white"/>
<path fill-rule="evenodd" clip-rule="evenodd" d="M38.3417 84.0959C48.7863 83.5593 50.5878 97.7285 44.9286 104.002C43.027 106.11 40.7111 106.861 37.9335 106.964C24.8975 106.628 26.9897 87.9714 33.873 85.6135C34.0161 85.7436 34.1583 85.8748 34.2987 86.0081C36.1276 85.3751 34.9395 84.4469 38.3417 84.0959ZM41.4364 98.6819C42.8115 95.6201 42.5788 89.3231 37.9247 89.6438C36.5604 90.1872 35.4783 91.266 34.9872 92.6438C33.7556 96.1009 33.8586 101.226 38.6981 101.178C40.0449 100.683 40.8301 100.032 41.4364 98.6819Z" fill="white"/>
<path fill-rule="evenodd" clip-rule="evenodd" d="M107.858 113.443C112.548 113.671 116.159 116.193 115.751 121.364C115.568 123.679 114.345 125.706 112.465 127.062C111.711 127.606 110.87 128.091 110.17 128.698C111.876 130.057 116.241 132.987 116.294 135.238C116.311 135.999 116.022 136.736 115.491 137.284C113.009 139.834 108.944 135.191 107.252 133.481C106.389 132.573 105.668 131.83 104.734 130.98C104.505 134.206 105.246 137.92 103.022 140.436C102.654 139.61 102.478 139.251 101.996 138.49C101.84 139.256 101.823 139.814 101.214 140.325C100.899 140.388 100.753 140.408 100.482 140.21C99.5138 139.503 99.1698 137.985 98.9923 136.863C98.4843 133.651 98.4539 117.411 100.133 115.335C101.452 113.704 104.847 113.594 106.798 113.445C107.151 113.427 107.505 113.427 107.858 113.443ZM106.801 118.408C105.922 118.549 105.833 118.603 105.034 118.957C104.952 120.89 104.903 122.825 104.888 124.76C105.933 124.591 106.402 124.514 107.377 124.02C110.551 122.072 110.955 118.518 106.801 118.408Z" fill="white"/>
<path fill-rule="evenodd" clip-rule="evenodd" d="M129.248 82.6443C130.911 82.462 132.751 82.6163 134.319 83.1267C139.477 84.8051 140.53 91.152 137.132 94.9695C136.009 96.231 134.951 96.9622 133.419 97.6443C135.245 99.6879 141.983 103.127 138.815 106.457C138.337 106.964 137.663 107.243 136.965 107.222C134.97 107.181 132.601 104.646 131.225 103.293C130.171 102.192 129.101 101.107 128.016 100.037C128.022 102.616 128.472 107.647 126.28 109.336C125.995 108.728 125.649 108.111 125.33 107.516C125.165 108.391 125.196 109.106 124.292 109.424C124.058 109.392 123.899 109.345 123.715 109.197C122.845 108.499 122.365 106.987 122.229 105.904C121.853 102.894 122 86.2423 123.512 84.4646C124.783 82.9701 127.436 82.842 129.248 82.6443ZM129.47 87.699C129.043 87.9013 128.669 88.0768 128.259 88.3084C128.204 90.1843 128.115 92.1649 128.124 94.033C129.36 93.7903 129.818 93.7048 130.949 93.0642C134.327 90.6974 133.573 87.4789 129.47 87.699Z" fill="white"/>
<path d="M66.8565 85.3537C67.1812 84.5811 67.3802 83.3096 68.281 83.1464C71.2985 84.4536 69.5788 99.435 69.3163 102.441C68.9659 106.457 65.3936 108.697 62.471 105.12C59.9487 102.032 58.4216 97.6882 56.2115 94.321L56.097 94.1483C56.0522 96.6476 56.2658 104.787 55.5247 106.649C55.3851 106.816 55.2426 106.985 55.0828 107.133C54.5042 107.667 53.7571 107.883 52.9793 107.846C52.2397 107.811 51.5553 107.515 51.0616 106.956C49.5009 105.187 50.0589 95.2505 50.304 92.6518C50.4845 90.7365 50.5951 86.1931 52.1643 84.9762C52.8908 84.4128 53.8955 84.2838 54.7842 84.4223C55.5923 84.5484 56.3998 84.91 57.0217 85.4418C59.8215 87.8368 61.7645 93.5503 63.9402 96.594L64.0365 96.7269C64.1287 93.9191 63.9424 90.9389 64.099 88.1322C64.206 86.2129 64.4101 84.3418 65.9015 83.0065C66.8038 83.1656 66.7617 84.584 66.8565 85.3537Z" fill="white"/>
<path fill-rule="evenodd" clip-rule="evenodd" d="M29.4614 113.796C30.2102 113.877 30.504 113.976 31.2212 114.282C33.6269 115.311 35.1897 119.461 36.0054 122.24C36.9867 125.585 39.4293 133.578 38.3149 136.951C37.9978 137.592 37.2267 138.033 36.5991 138.178C32.889 139.032 32.6602 134.453 32.0962 131.733C30.7336 131.673 28.6772 131.774 27.2651 131.801L25.4282 131.846C24.8681 133.706 24.1371 139.03 21.7075 139.229C18.5367 139.488 18.4442 136.863 18.9643 134.499C20.3764 128.081 22.1742 121.368 25.8296 115.825C26.7122 114.49 27.9688 114.018 29.4614 113.796ZM29.2065 120.161C28.3025 121.622 27.2911 125.219 26.8638 126.984L29.0161 126.921L31.0552 126.893C30.8419 125.412 30.1946 121.142 29.2065 120.161Z" fill="white"/>
<path d="M113.193 83.6137C114.677 83.4852 117.834 83.412 119.016 84.3282C119.507 84.7082 119.815 85.2764 119.866 85.8941C119.927 86.6613 119.658 87.4182 119.126 87.9752C117.937 89.2256 114.201 88.9838 112.363 89.0178C112.164 89.2116 111.844 89.5952 111.649 89.8171C111.387 91.0153 111.344 92.2429 111.334 93.4642C112.658 93.4018 116.564 93.0323 117.622 93.963C119.413 95.5374 118.304 97.8007 115.978 98.2139C114.397 98.4948 112.666 98.5721 110.946 98.7278C110.83 100.381 110.814 101.284 111.03 102.92C113.843 103.068 116.122 102.349 118.755 102.335C119.399 102.564 120.231 102.899 120.385 103.596C120.252 103.962 119.853 104.184 119.523 104.428L119.543 104.585C119.916 104.777 120.235 104.876 120.428 105.231C120.422 105.429 120.414 105.571 120.298 105.743C119.3 107.228 116.575 107.796 114.925 108.076C112.791 108.437 108.799 108.813 107.002 107.459C105.961 106.674 105.509 105.155 105.306 103.916C104.694 100.181 105.232 88.403 107.536 85.4401C108.699 83.9443 111.461 83.8041 113.193 83.6137Z" fill="white"/>
<path d="M14.6069 113.327C16.0712 113.302 18.5677 113.269 19.8264 114.167C20.6545 114.808 21.0777 116.398 20.4774 117.294C19.4054 118.892 17.1357 118.871 15.408 118.98C13.5358 119.098 11.6662 119.207 9.79426 119.349C9.69211 121.016 9.57951 122.681 9.45645 124.346C11.5621 124.311 13.6926 123.968 15.7857 124.17C16.5523 124.244 18.4048 124.836 18.2538 125.816C17.6883 126.507 17.1997 126.446 16.2848 126.591C16.8894 126.895 17.6039 127.203 18.1015 127.64C17.9539 129.589 11.2022 129.733 9.71717 129.755C8.95811 130.926 10.8671 136.974 9.19865 139.224C8.8494 139.695 8.37855 139.964 7.7946 140.026C6.95018 140.116 5.81635 139.857 5.1519 139.314C3.67466 138.107 3.77899 134.873 3.63453 133.117C3.34414 129.588 2.93579 117.467 5.15239 115.041C6.66052 113.391 12.3591 113.409 14.6069 113.327Z" fill="white"/>
<path d="M80.0746 82.886C82.0157 82.8035 84.6326 82.8181 85.8623 84.7065C86.0984 85.0693 86.2101 86.1373 86.1257 86.5493C85.4673 89.7638 81.1178 87.5591 79.3511 88.9257C79.043 89.1623 78.8467 89.5159 78.8095 89.902C78.4233 93.5677 88.1698 93.8112 87.2563 102.024C87.0435 103.935 86.0619 105.678 84.5365 106.854C82.2492 108.651 79.4447 108.744 76.6729 108.393C74.5108 108.077 71.7815 107.145 71.5317 104.601C71.4651 103.924 71.6263 103.091 72.1383 102.595C74.3016 100.503 76.6466 103.135 79.06 102.881C79.6461 102.856 80.1695 102.596 80.5263 102.136C82.0344 100.189 79.2602 98.3803 77.8544 97.452C77.2026 97.03 76.5744 96.5528 75.9343 96.1182C69.186 91.5358 72.3774 83.6397 80.0746 82.886Z" fill="white"/>
<path d="M50.1588 114.644C52.4805 114.393 54.9705 114.724 56.7019 116.53C57.8335 117.711 57.9481 119.518 56.6024 120.62C55.4394 121.403 53.7588 120.787 52.4834 120.545C47.1825 119.537 45.0943 127.893 47.6518 131.293C49.5946 133.875 52.4124 132.277 54.63 131.059C57.3381 129.572 59.0717 131.43 58.434 134.286C56.1216 138.747 48.2256 139.85 44.5383 136.897C36.8563 130.744 40.1387 116.357 50.1588 114.644Z" fill="white"/>
<path d="M134.457 113.015C134.885 113.599 134.635 114.633 134.546 115.406C135.272 114.822 136.031 113.565 136.975 113.963C139.378 116.986 131.558 126.381 129.73 129.041C129.516 131.524 129.972 137.919 128.432 139.667C127.954 140.209 127.321 140.495 126.602 140.541C125.783 140.592 124.927 140.415 124.314 139.839C123.885 139.435 123.644 138.903 123.525 138.334C123.153 136.56 123.536 131.61 123.523 129.49C123.479 128.803 121.945 127.055 121.456 126.221C119.829 123.4 117.046 119.58 117.234 116.214C117.344 114.244 120.82 113.459 122.142 115.343C123.932 117.895 124.923 121.082 126.621 123.649L126.72 123.797C127.887 122.041 128.941 120.205 130.019 118.393C131.332 116.187 132.101 114.3 134.457 113.015Z" fill="white"/>
<path d="M73.0651 114.297C74.2892 114.257 75.3649 114.201 76.4048 114.96C77.4056 115.668 77.804 117.095 76.9557 118.078C75.5869 119.663 72.9291 119.695 70.9742 119.906C70.9594 122.804 71.3262 134.856 70.5365 136.755C70.2273 137.498 69.5641 138.078 68.8048 138.335C68.0601 138.588 67.2512 138.483 66.5561 138.127C65.773 137.726 65.4549 137.072 65.2066 136.267C64.3872 132.877 65.1275 124.223 65.2846 120.319C63.7736 120.474 61.19 120.955 59.9304 119.959C59.3917 119.533 59.084 118.707 59.0524 118.039C59.0225 117.408 59.2788 116.828 59.7169 116.378C61.6829 114.362 70.0885 114.41 73.0651 114.297Z" fill="white"/>
<path d="M98.2468 83.4949C100.024 83.4023 102.949 83.0177 104.46 84.0609C105.425 84.7276 105.401 86.6158 104.63 87.4269C103.375 88.7467 100.666 88.8269 98.947 89.0025C98.6939 94.1144 98.9677 99.2402 98.7702 104.353C98.6642 107.097 96.6234 108.324 94.1532 107.08C94.0131 106.959 93.8805 106.83 93.7562 106.693C92.376 105.169 92.8138 100.726 92.8732 98.6917L93.1572 89.3789C91.8716 89.3998 88.5793 89.8974 87.8101 88.8963C83.55 83.3509 96.0767 83.6138 98.2468 83.4949Z" fill="white"/>
<path d="M64.0764 0.0305481C66.7809 -0.0875291 69.4899 0.132982 72.1408 0.685822C76.3375 1.58794 80.4407 3.56575 83.4504 6.63113C93.5885 16.9584 86.7221 28.9174 90.7404 40.8577C92.1533 45.3184 96.2376 47.6408 98.7541 51.2737C100.136 53.2684 100.507 56.2854 98.508 58.011C95.2039 60.8624 90.9902 57.0431 87.6447 58.6595C85.9407 59.7002 87.6456 62.6566 87.7746 63.9895C88.4993 71.4941 81.7561 71.4463 76.6965 70.2659C73.5983 69.3701 72.3219 68.5995 69.5334 67.1575C66.659 65.6712 64.0175 62.6449 60.9787 62.3147C59.3732 62.1402 57.7258 63.5312 56.0627 63.6389C54.1189 63.7645 52.1798 62.499 50.7736 61.2591C43.641 54.8538 40.3515 44.376 39.551 35.0589C38.4192 21.886 43.4836 6.57911 56.6408 1.51297C59.1504 0.546808 61.4204 0.212718 64.0764 0.0305481ZM80.2131 8.08524C76.1973 4.80428 69.4955 3.05852 64.3156 3.6077C38.5032 5.50366 37.7411 44.1768 52.9758 58.5579C56.0726 61.4808 57.0561 59.5375 60.2531 59.0247C57.5597 55.518 55.921 52.362 54.7492 48.0423C59.3646 54.8448 64.2886 60.0337 71.5695 64.1565C73.6362 65.3267 76.3909 66.5615 78.7326 67.0462C80.7267 67.4288 84.7384 67.9072 84.9367 65.1848C85.2472 60.9188 81.0181 55.8431 79.4455 51.97C78.3807 49.347 77.8499 47.7379 77.4279 45.1214C79.8873 49.9777 81.6271 52.4927 85.1281 56.7034C86.8634 55.0924 87.8999 54.9955 90.1779 54.9085C91.1871 54.6999 97.554 56.7816 97.0578 54.3001C96.5661 51.8446 93.034 49.3658 91.3947 47.471C87.5046 42.9748 86.267 36.7893 86.3742 30.9671C86.5233 22.8559 87.4826 13.7701 80.2131 8.08524Z" fill="white"/>
<path d="M68.5473 18.9446C73.1881 18.732 71.9132 26.4962 70.2018 28.9089C69.3986 30.0412 69.1815 30.3178 67.9349 30.8646C63.1123 30.985 64.0544 20.7147 68.5473 18.9446Z" fill="white"/>
<path d="M51.0749 16.8455C55.7667 16.4934 54.6526 25.8727 50.8845 28.0326C46.5051 28.6335 47.0979 19.0657 51.0749 16.8455Z" fill="white"/>
</g>
<defs>
<clipPath id="clip0_8_226">
<rect width="140" height="141" fill="white"/>
</clipPath>
</defs>
</svg>
